<svg xmlns="http://www.w3.org/2000/svg" xmlns:xlink="http://www.w3.org/1999/xlink" width="500" zoomAndPan="magnify" viewBox="0 0 375 374.999991" height="500" preserveAspectRatio="xMidYMid meet" version="1.0">
    <defs>
        <g />
        <clipPath id="id1">
            <path d="M 93.949219 37.5 L 280.699219 37.5 L 280.699219 240 L 93.949219 240 Z M 93.949219 37.5 " clip-rule="nonzero" />
        </clipPath>
    </defs>
    <g clip-path="url(#id1)">
        <path fill="#ffffff" d="M 271.996094 83.488281 C 253.964844 55.769531 222.796875 37.5 187.367188 37.5 C 148.046875 37.5 113.886719 60.039062 97.304688 93.03125 C 139.617188 49.226562 218.539062 37.5 255.597656 92.941406 C 250.160156 96.125 244.722656 99.304688 239.289062 102.484375 C 232.761719 93.214844 223.972656 85.761719 213.644531 81.035156 C 179.125 65.222656 130.921875 77.308594 108.992188 109.484375 C 88.699219 139.386719 87.519531 180.378906 114.15625 208.550781 C 132.550781 227.910156 158.554688 240 187.367188 240 C 222.796875 240 253.964844 221.730469 271.996094 194.011719 C 275.347656 188.738281 278.339844 183.195312 280.695312 177.285156 C 275.257812 174.105469 269.730469 170.925781 264.203125 167.742188 C 258.675781 164.472656 253.148438 161.289062 247.625 158.109375 C 242.003906 154.835938 236.386719 151.566406 230.769531 148.292969 C 229.320312 154.65625 226.601562 160.5625 222.796875 165.5625 C 214.734375 176.378906 201.867188 183.285156 187.367188 183.285156 C 179.667969 183.285156 172.507812 181.375 166.257812 178.015625 C 143.605469 166.652344 134.90625 147.113281 137.714844 120.753906 C 125.484375 141.75 123.945312 163.289062 140.707031 181.648438 C 152.304688 194.28125 168.886719 202.191406 187.367188 202.191406 C 208.84375 202.191406 227.78125 191.464844 239.289062 175.105469 C 244.722656 178.195312 250.160156 181.375 255.597656 184.558594 C 240.917969 206.644531 215.820312 221.09375 187.367188 221.09375 C 163.8125 221.09375 142.609375 211.1875 127.566406 195.28125 C 115.878906 182.832031 110.351562 167.835938 111.441406 151.292969 C 112.527344 134.75 120.230469 118.027344 132.460938 107.121094 C 148.859375 92.667969 171.511719 86.398438 191.988281 91.851562 C 210.019531 96.667969 226.691406 110.484375 230.769531 129.207031 C 236.386719 125.933594 242.003906 122.664062 247.625 119.390625 C 253.148438 116.210938 258.675781 113.027344 264.203125 109.847656 C 269.730469 106.574219 275.257812 103.394531 280.695312 100.214844 C 278.339844 94.394531 275.347656 88.761719 271.996094 83.488281 Z M 271.996094 83.488281 " fill-opacity="1" fill-rule="evenodd" />
    </g>
    <g fill="#ffffff" fill-opacity="1">
        <g transform="translate(41.165374, 304.525031)">
            <g>
                <path d="M 22.054688 0.761719 C 32.074219 0.761719 39.859375 -5.335938 41.765625 -14.59375 L 32.835938 -14.59375 C 31.253906 -10.238281 27.226562 -7.460938 22.214844 -7.460938 C 15.738281 -7.460938 11.164062 -12.199219 11.164062 -19.058594 C 11.164062 -25.917969 15.792969 -30.65625 22.269531 -30.65625 C 27.117188 -30.65625 31.09375 -28.042969 32.5625 -23.851562 L 41.492188 -23.851562 C 39.316406 -33 31.691406 -38.878906 22 -38.878906 C 10.453125 -38.878906 2.339844 -30.710938 2.339844 -19.058594 C 2.339844 -7.40625 10.453125 0.761719 22.054688 0.761719 Z M 22.054688 0.761719 " />
            </g>
        </g>
    </g>
    <g fill="#ffffff" fill-opacity="1">
        <g transform="translate(87.009024, 304.525031)">
            <g>
                <path d="M 18.1875 0.761719 C 27.660156 0.761719 34.195312 -5.390625 34.195312 -14.320312 C 34.195312 -23.195312 27.660156 -29.351562 18.1875 -29.351562 C 8.65625 -29.351562 2.125 -23.195312 2.125 -14.320312 C 2.125 -5.390625 8.65625 0.761719 18.1875 0.761719 Z M 10.292969 -14.320312 C 10.292969 -19.003906 13.558594 -22.269531 18.1875 -22.269531 C 22.816406 -22.269531 26.027344 -19.003906 26.027344 -14.320312 C 26.027344 -9.636719 22.816406 -6.371094 18.1875 -6.371094 C 13.558594 -6.371094 10.292969 -9.636719 10.292969 -14.320312 Z M 10.292969 -14.320312 " />
            </g>
        </g>
    </g>
    <g fill="#ffffff" fill-opacity="1">
        <g transform="translate(125.230288, 304.525031)">
            <g>
                <path d="M 16.664062 0.761719 C 20.800781 0.761719 24.339844 -0.707031 26.898438 -3.265625 L 27.878906 0 L 34.03125 0 L 34.03125 -40.292969 L 25.757812 -40.292969 L 25.757812 -26.355469 C 23.304688 -28.261719 20.203125 -29.351562 16.664062 -29.351562 C 8.167969 -29.351562 2.125 -23.085938 2.125 -14.320312 C 2.125 -5.445312 8.167969 0.761719 16.664062 0.761719 Z M 10.292969 -14.320312 C 10.292969 -18.949219 13.503906 -22.269531 18.1875 -22.269531 C 22.816406 -22.269531 26.027344 -18.949219 26.027344 -14.320312 C 26.027344 -9.636719 22.816406 -6.371094 18.1875 -6.371094 C 13.503906 -6.371094 10.292969 -9.636719 10.292969 -14.320312 Z M 10.292969 -14.320312 " />
            </g>
        </g>
    </g>
    <g fill="#ffffff" fill-opacity="1">
        <g transform="translate(165.302696, 304.525031)">
            <g>
                <path d="M 17.640625 0.761719 C 24.667969 0.761719 30.222656 -2.832031 32.726562 -8.875 L 24.339844 -8.875 C 22.980469 -6.96875 20.527344 -5.878906 17.804688 -5.878906 C 14.046875 -5.878906 11.109375 -8.003906 10.347656 -11.925781 L 33.269531 -11.925781 C 33.761719 -22.378906 27.554688 -29.351562 17.75 -29.351562 C 8.496094 -29.351562 2.125 -23.195312 2.125 -14.320312 C 2.125 -5.390625 8.441406 0.761719 17.640625 0.761719 Z M 10.402344 -17.152344 C 11.324219 -20.636719 14.15625 -22.761719 17.804688 -22.761719 C 21.617188 -22.761719 24.339844 -20.636719 25.265625 -17.152344 Z M 10.402344 -17.152344 " />
            </g>
        </g>
    </g>
    <g fill="#ffffff" fill-opacity="1">
        <g transform="translate(202.543948, 304.525031)">
            <g>
                <path d="M 4.136719 0 L 12.414062 0 L 12.414062 -12.632812 C 12.414062 -18.785156 15.300781 -21.074219 20.039062 -21.074219 L 23.195312 -21.074219 L 23.195312 -28.585938 L 20.09375 -28.585938 C 15.898438 -28.585938 13.230469 -27.445312 11.378906 -24.777344 L 10.292969 -28.585938 L 4.136719 -28.585938 Z M 4.136719 0 " />
            </g>
        </g>
    </g>
    <g fill="#ffffff" fill-opacity="1">
        <g transform="translate(229.494986, 304.525031)">
            <g>
                <path d="M 17.640625 0.761719 C 24.667969 0.761719 30.222656 -2.832031 32.726562 -8.875 L 24.339844 -8.875 C 22.980469 -6.96875 20.527344 -5.878906 17.804688 -5.878906 C 14.046875 -5.878906 11.109375 -8.003906 10.347656 -11.925781 L 33.269531 -11.925781 C 33.761719 -22.378906 27.554688 -29.351562 17.75 -29.351562 C 8.496094 -29.351562 2.125 -23.195312 2.125 -14.320312 C 2.125 -5.390625 8.441406 0.761719 17.640625 0.761719 Z M 10.402344 -17.152344 C 11.324219 -20.636719 14.15625 -22.761719 17.804688 -22.761719 C 21.617188 -22.761719 24.339844 -20.636719 25.265625 -17.152344 Z M 10.402344 -17.152344 " />
            </g>
        </g>
    </g>
    <g fill="#ffffff" fill-opacity="1">
        <g transform="translate(266.736238, 304.525031)">
            <g>
                <path d="M 17.75 0.761719 C 25.808594 0.761719 31.855469 -3.976562 33.378906 -11.488281 L 25.320312 -11.488281 C 24.175781 -8.386719 21.34375 -6.371094 17.859375 -6.371094 C 13.394531 -6.371094 10.292969 -9.636719 10.292969 -14.320312 C 10.292969 -19.003906 13.394531 -22.269531 17.859375 -22.269531 C 21.128906 -22.269531 23.796875 -20.527344 25.15625 -17.640625 L 33.105469 -17.640625 C 31.800781 -24.722656 25.703125 -29.351562 17.75 -29.351562 C 8.601562 -29.351562 2.125 -23.085938 2.125 -14.320312 C 2.125 -5.5 8.550781 0.761719 17.75 0.761719 Z M 17.75 0.761719 " />
            </g>
        </g>
    </g>
    <g fill="#ffffff" fill-opacity="1">
        <g transform="translate(304.031939, 304.525031)">
            <g>
                <path d="M 15.136719 0.761719 C 22.871094 0.761719 27.554688 -2.613281 27.554688 -8.058594 C 27.554688 -12.742188 24.066406 -15.738281 16.988281 -17.152344 C 12.089844 -18.132812 10.5625 -18.949219 10.5625 -20.691406 C 10.5625 -22.378906 12.089844 -23.359375 14.539062 -23.359375 C 17.316406 -23.359375 19.003906 -22.109375 19.167969 -19.929688 L 27.0625 -19.929688 C 26.683594 -25.972656 22.214844 -29.351562 14.59375 -29.351562 C 6.914062 -29.351562 2.558594 -26.246094 2.558594 -20.691406 C 2.558594 -15.953125 5.828125 -13.121094 13.121094 -11.816406 C 17.535156 -11.054688 19.386719 -9.910156 19.386719 -8.113281 C 19.386719 -6.425781 17.859375 -5.390625 15.246094 -5.390625 C 12.199219 -5.390625 10.347656 -6.859375 10.292969 -9.203125 L 2.179688 -9.203125 C 2.179688 -3.210938 7.296875 0.761719 15.136719 0.761719 Z M 15.136719 0.761719 " />
            </g>
        </g>
    </g>
</svg>